<?xml version="1.0" encoding="UTF-8" standalone="no"?>
<svg
   version="1.1"
   id="Layer_1"
   x="0px"
   y="0px"
   width="88.95636"
   viewBox="0 0 88.95636 106.80309"
   enable-background="new 0 0 400 288"
   xml:space="preserve"
   sodipodi:docname="32d9db2d0b02c29f52c518e0b71dec7f_adobe_express.svg"
   height="106.80309"
   inkscape:version="1.1.2 (0a00cf5339, 2022-02-04)"
   xmlns:inkscape="http://www.inkscape.org/namespaces/inkscape"
   xmlns:sodipodi="http://sodipodi.sourceforge.net/DTD/sodipodi-0.dtd"
   xmlns="http://www.w3.org/2000/svg"
   xmlns:svg="http://www.w3.org/2000/svg"><defs
   id="defs105" /><sodipodi:namedview
   id="namedview103"
   pagecolor="#ffffff"
   bordercolor="#666666"
   borderopacity="1.0"
   inkscape:pageshadow="2"
   inkscape:pageopacity="0.0"
   inkscape:pagecheckerboard="0"
   showgrid="false"
   inkscape:zoom="2.9305556"
   inkscape:cx="43.507109"
   inkscape:cy="46.919431"
   inkscape:window-width="1846"
   inkscape:window-height="1016"
   inkscape:window-x="74"
   inkscape:window-y="27"
   inkscape:window-maximized="1"
   inkscape:current-layer="Layer_1" />
<path
   fill="#000000"
   opacity="1"
   stroke="none"
   d="m 60.160273,79.180675 c -10.15022,-10.11837 -19.97894,-20.05871 -29.99215,-29.80957 -2.73734,-2.6656 -3.10015,-4.49162 -0.0137,-7.18803 4.00042,-3.49492 7.65381,-7.40256 11.30504,-11.27541 2.00575,-2.12751 3.53418,-2.38264 5.74002,-0.14926 11.10796,11.24667 22.30471,22.4065 33.55414,33.51187 2.08614,2.05942 2.11,3.7742 0.41307,6.04656 -4.10266,5.49394 -9.12709,10.03967 -13.91408,14.68345 -3.23303,-1.19336 -4.68776,-3.80366 -7.0923,-5.81961 z"
   id="path88"
   style="fill:#65bd6d;fill-opacity:1" />
<path
   fill="#000000"
   opacity="1"
   stroke="none"
   d="m 84.878903,25.682675 c 4.68318,10.9615 5.27719,21.72255 2.06534,32.64272 -2.85315,0.27832 -3.8719,-1.46447 -5.10773,-2.68614 -9.58981,-9.48008 -19.04748,-19.09574 -28.74038,-28.46846 -2.92673,-2.83006 -3.23456,-4.91139 -0.11423,-7.71819 3.5842,-3.22405 7.01478,-6.65039 10.2359,-10.2369197 2.74037,-3.05123 5.09935,-2.7732 8.11037,-0.40347 5.73939,4.5170097 10.2592,9.9348497 13.55073,16.8704597 z"
   id="path90"
   style="fill:#f0ba19;fill-opacity:1" />
<path
   fill="#000000"
   opacity="1"
   stroke="none"
   d="m 18.576023,37.792465 c -3.89554,-3.89569 -7.46605,-7.62018 -11.21137,-11.15971 -2.08691,-1.97225 -2.15973,-3.72111 -0.61586,-6.08161 3.23238,-4.94217 7.15169,-9.13927 12.02388,-12.4892997 2.26875,-1.55996 4.10382,-1.59928 6.11751,0.51475 3.89848,4.0927397 7.9458,8.0454497 11.98454,12.0019897 1.71318,1.67832 2.14415,3.14651 0.17024,5.01457 -4.34674,4.11361 -8.64181,8.2876 -12.81627,12.57492 -2.00717,2.06145 -3.64672,1.89543 -5.65267,-0.37561 z"
   id="path92"
   style="fill:#905aa2;fill-opacity:1" />
<path
   fill="#000000"
   opacity="1"
   stroke="none"
   d="m 18.844873,82.533615 c -3.99327,-4.02698 -7.84056,-7.69887 -10.95274,-12.07045 -1.69521,-2.3812 -2.06644,-4.25028 0.37328,-6.45813 3.69702,-3.34573 7.18925,-6.92503 10.66298,-10.50742 1.903,-1.96252 3.54342,-2.04303 5.48252,-0.0775 4.20609,4.26329 8.48113,8.45918 12.76441,12.64535 1.64644,1.6091 1.64389,3.0849 0.0108,4.69144 -4.26976,4.20035 -8.55636,8.38577 -12.73329,12.67735 -2.20479,2.26531 -3.76485,1.11562 -5.60796,-0.9006 z"
   id="path94"
   style="fill:#4387c5;fill-opacity:1" />
<path
   fill="#000000"
   opacity="1"
   stroke="none"
   d="m 56.926203,95.433685 c -3.27377,3.3356 -6.38548,6.345925 -9.29948,9.536775 -2.14751,2.35155 -3.96114,2.49101 -6.2137,0.12248 -3.78081,-3.97549 -7.69865,-7.823315 -11.63026,-11.651535 -1.89068,-1.84094 -2.25823,-3.43222 -0.1471,-5.43797 4.0985,-3.89399 8.1225,-7.87284 12.03798,-11.95037 2.08032,-2.16641 3.73842,-2.18548 5.79781,0.0167 3.06543,3.27795 6.31851,6.38098 9.50543,9.54466 4.88153,4.84596 4.88646,4.84099 -0.0507,9.81926 z"
   id="path96"
   style="fill:#ee6925;fill-opacity:1" />
<path
   fill="#000000"
   opacity="1"
   stroke="none"
   d="m 35.186703,9.1670053 c -1.84825,-2.08871 -4.20805,-3.29893 -5.18037,-6.391493 9.69325,-3.75186197 19.1372,-3.72326697 29.45831,0.227683 -4.81287,4.83258 -9.069,9.1647097 -13.3981,13.4226697 -1.61173,1.58522 -3.00765,0.6213 -4.28328,-0.66394 -2.10797,-2.12387 -4.2321,-4.23168 -6.59656,-6.5949197 z"
   id="path98"
   style="fill:#cc278e;fill-opacity:1" />
<path
   fill="#000000"
   opacity="1"
   stroke="none"
   d="m 1.103393,34.517255 c 0.69098,-2.29089 1.95636,-2.11084 3.08015,-1.04465 3.60016,3.41559 7.10717,6.92984 10.62717,10.42911 1.12514,1.11852 1.14699,2.29119 0.0131,3.47319 -3.73867,3.89733 -7.46186,7.80948 -11.88295,12.44081 -3.90773002,-9.04873 -3.25441002,-16.9651 -1.83748,-25.29846 z"
   id="path100"
   style="fill:#56c0d7;fill-opacity:1" />
</svg>
